# Blender v2.73 (sub 0) OBJ File: 'box.blend'
# www.blender.org
mtllib box4.mtl
o Cube
v 1.000000 -1.000000 -1.000000
v 1.000000 -1.000000 1.000000
v -1.000000 -1.000000 1.000000
v -1.000000 -1.000000 -1.000000
v 1.000000 1.000000 -0.999999
v 0.999999 1.000000 1.000001
v -1.000000 1.000000 1.000000
v -1.000000 1.000000 -1.000000
vt 0.483780 0.985884
vt 0.016025 0.985884
vt 0.016025 0.518129
vt 0.493549 0.992956
vt 0.011989 0.992956
vt 0.011989 0.511395
vt 0.992538 0.998768
vt 0.504347 0.998768
vt 0.504347 0.510577
vt 0.494058 0.991581
vt 0.014155 0.991581
vt 0.014155 0.511678
vt 0.496073 0.508871
vt 0.496073 0.990535
vt 0.014409 0.990535
vt 0.501388 0.995850
vt 0.014040 0.995850
vt 0.014040 0.508501
vt 0.483780 0.518129
vt 0.493549 0.511395
vt 0.992538 0.510577
vt 0.494058 0.511678
vt 0.014409 0.508871
vt 0.501388 0.508501
vn 0.000000 -1.000000 0.000000
vn 0.000000 1.000000 0.000000
vn 1.000000 0.000000 0.000000
vn -0.000000 0.000000 1.000000
vn -1.000000 -0.000000 -0.000000
vn 0.000000 0.000000 -1.000000
usemtl Material
s off
f 2/1/1 3/2/1 4/3/1
f 8/4/2 7/5/2 6/6/2
f 5/7/3 6/8/3 2/9/3
f 6/10/4 7/11/4 3/12/4
f 3/13/5 7/14/5 8/15/5
f 1/16/6 4/17/6 8/18/6
f 1/19/1 2/1/1 4/3/1
f 5/20/2 8/4/2 6/6/2
f 1/21/3 5/7/3 2/9/3
f 2/22/4 6/10/4 3/12/4
f 4/23/5 3/13/5 8/15/5
f 5/24/6 1/16/6 8/18/6
